<svg width="70" height="70" viewBox="0 0 70 70" fill="none" xmlns="http://www.w3.org/2000/svg">
<path d="M1.15572 57.6081H0V68.4245H1.15572V57.6081Z" fill="white"/>
<path d="M11.5127 57.6081H10.2829L5.97121 68.3306L5.9317 68.4245H7.15656L8.44564 65.1055H13.2117L14.5107 68.4245H15.7504L11.5276 57.6526L11.5127 57.6081ZM8.81606 64.0979L10.8509 58.8873L12.8166 64.0979H8.81606Z" fill="white"/>
<path d="M26.952 63.5695C26.6952 63.3521 26.3939 63.1694 26.0531 63.0212C25.7173 62.878 25.3518 62.7545 24.9715 62.6508L22.3687 62.0088C22.1563 61.9594 21.9488 61.8952 21.7562 61.8161C21.5685 61.742 21.4006 61.6383 21.2574 61.5149C21.1142 61.3914 21.0006 61.2383 20.9215 61.0654C20.8425 60.8925 20.803 60.6802 20.803 60.4431C20.803 60.0579 20.8771 59.7319 21.0203 59.4751C21.1635 59.2182 21.3562 59.0059 21.5883 58.8478C21.8254 58.6898 22.1019 58.5712 22.418 58.5021C23.0749 58.349 23.8256 58.349 24.4776 58.5465C24.8085 58.6453 25.1098 58.7984 25.3666 58.996C25.6234 59.1935 25.8309 59.4454 25.9889 59.7368C26.147 60.0282 26.2359 60.3789 26.2556 60.774V60.8382H27.4113V60.7691C27.4113 60.211 27.3027 59.7171 27.0804 59.2923C26.8631 58.8725 26.5668 58.512 26.2013 58.2304C25.8358 57.9489 25.4061 57.7316 24.9221 57.5884C24.4381 57.4501 23.9244 57.376 23.391 57.376C22.6354 57.376 22.0081 57.4847 21.5241 57.702C21.0401 57.9193 20.6499 58.1909 20.3733 58.5021C20.0918 58.8182 19.8992 59.159 19.7954 59.5146C19.6967 59.8702 19.6423 60.1813 19.6423 60.448C19.6423 60.8728 19.7115 61.2383 19.8498 61.5396C19.9881 61.8359 20.1708 62.0878 20.398 62.2952C20.6203 62.4977 20.887 62.6656 21.1882 62.7842C21.4846 62.9027 21.7908 63.0064 22.1019 63.0854L24.4825 63.6682C24.7245 63.7275 24.9764 63.8016 25.2382 63.9004C25.4901 63.9942 25.7222 64.1128 25.9346 64.2609C26.142 64.4042 26.3099 64.582 26.4384 64.7943C26.5668 65.0018 26.631 65.2487 26.631 65.5352C26.631 65.9056 26.5371 66.2266 26.3593 66.4933C26.1766 66.76 25.9445 66.9773 25.6679 67.1453C25.3913 67.3132 25.09 67.4416 24.769 67.5157C24.448 67.5947 24.1467 67.6342 23.875 67.6342C23.391 67.6342 22.9366 67.5848 22.5119 67.4959C22.0921 67.4021 21.7266 67.249 21.4204 67.0366C21.1191 66.8242 20.8771 66.5378 20.7042 66.1822C20.5314 65.8266 20.4474 65.3722 20.4573 64.8388V64.7696H19.3065V64.8338C19.2719 65.5006 19.3608 66.0785 19.5683 66.5526C19.7757 67.0317 20.077 67.4268 20.4622 67.7281C20.8474 68.0343 21.3167 68.2615 21.8649 68.4047C22.4082 68.5479 23.0008 68.622 23.633 68.622C24.2652 68.622 24.8134 68.5628 25.2678 68.4492C25.7222 68.3356 26.1074 68.1775 26.4137 67.9948C26.7248 67.8071 26.9718 67.5947 27.1496 67.3577C27.3274 67.1255 27.4657 66.8885 27.5595 66.6613C27.6533 66.4341 27.7176 66.2118 27.7422 66.0093C27.7669 65.8019 27.7818 65.6438 27.7818 65.5204C27.7818 65.0758 27.7077 64.6857 27.5595 64.3696C27.4113 64.0535 27.2039 63.7818 26.9421 63.5596" fill="white"/>
<path d="M37.9362 66.8489L34.4542 57.6575L34.4394 57.6081H32.8293V68.4245H33.9801V59.4257L37.4077 68.4245H38.4597L42.0256 59.4158V68.4245H43.1814V57.6081H41.5663L37.9362 66.8489Z" fill="white"/>
<path d="M56.1906 59.0948C55.7658 58.5762 55.2324 58.1564 54.5953 57.8501C53.9631 57.5439 53.2124 57.3859 52.3678 57.3859C51.5233 57.3859 50.7725 57.5439 50.1305 57.8501C49.4934 58.1564 48.9501 58.5762 48.5303 59.0948C48.1055 59.6133 47.7845 60.2159 47.577 60.8876C47.3647 61.5593 47.2609 62.2755 47.2609 63.0163C47.2609 63.7571 47.3696 64.4733 47.577 65.145C47.7894 65.8167 48.1104 66.4192 48.5303 66.9329C48.955 67.4465 49.4934 67.8614 50.1305 68.1726C50.7725 68.4788 51.5233 68.6368 52.3678 68.6368C53.2124 68.6368 53.9631 68.4788 54.5953 68.1726C55.2275 67.8664 55.7658 67.4515 56.1906 66.9329C56.6104 66.4192 56.9364 65.8167 57.1438 65.145C57.3562 64.4733 57.4599 63.7571 57.4599 63.0163C57.4599 62.2755 57.3512 61.5593 57.1438 60.8876C56.9314 60.2159 56.6104 59.6084 56.1906 59.0948ZM56.077 64.7104C55.9239 65.2635 55.6868 65.7624 55.3707 66.197C55.0546 66.6316 54.6447 66.9823 54.1508 67.244C53.6618 67.5058 53.0593 67.6392 52.3678 67.6392C51.6764 67.6392 51.0738 67.5058 50.575 67.244C50.0761 66.9823 49.6662 66.6267 49.3501 66.197C49.034 65.7624 48.797 65.2635 48.6438 64.7104C48.4907 64.1572 48.4167 63.5843 48.4167 63.0163C48.4167 62.4483 48.4957 61.8655 48.6438 61.3173C48.797 60.7691 49.034 60.2702 49.3501 59.8356C49.6662 59.401 50.0761 59.0503 50.575 58.7885C51.0689 58.5268 51.6714 58.3934 52.3678 58.3934C53.0642 58.3934 53.6618 58.5268 54.1508 58.7885C54.6447 59.0503 55.0546 59.4059 55.3707 59.8356C55.6868 60.2702 55.9239 60.7691 56.077 61.3173C56.2301 61.8655 56.3042 62.4384 56.3042 63.0163C56.3042 63.5942 56.2252 64.1572 56.077 64.7104Z" fill="white"/>
<path d="M69.3233 64.3795C69.1751 64.0634 68.9677 63.7917 68.7059 63.5695C68.4491 63.3521 68.1429 63.1694 67.807 63.0212C67.4712 62.878 67.1057 62.7496 66.7254 62.6508L64.1226 62.0088C63.9102 61.9594 63.7028 61.8952 63.5151 61.8161C63.3274 61.742 63.1644 61.6383 63.0162 61.5149C62.873 61.3914 62.7594 61.2383 62.6804 61.0654C62.6014 60.8925 62.5569 60.6802 62.5569 60.4431C62.5569 60.0579 62.631 59.7319 62.7742 59.4751C62.9175 59.2182 63.1101 59.0059 63.3422 58.8478C63.5793 58.6898 63.8559 58.5712 64.172 58.5021C64.8288 58.349 65.5796 58.349 66.2315 58.5465C66.5674 58.6453 66.8637 58.7984 67.1205 58.996C67.3774 59.1935 67.5848 59.4454 67.7428 59.7368C67.9009 60.0282 67.9898 60.3789 68.0095 60.774V60.8382H69.1653V60.7691C69.1653 60.211 69.0517 59.7171 68.8344 59.2923C68.617 58.8725 68.3207 58.5169 67.9552 58.2304C67.5897 57.9489 67.16 57.7316 66.676 57.5884C66.192 57.4501 65.6784 57.376 65.1449 57.376C64.3893 57.376 63.762 57.4847 63.278 57.702C62.794 57.9193 62.4038 58.1909 62.1272 58.507C61.8457 58.8231 61.6531 59.1639 61.5494 59.5195C61.4457 59.8751 61.3963 60.1863 61.3963 60.453C61.3963 60.8777 61.4654 61.2432 61.6037 61.5445C61.742 61.8408 61.9247 62.0927 62.1519 62.3001C62.3742 62.5026 62.6409 62.6706 62.9422 62.7891C63.2385 62.9076 63.5447 63.0114 63.8559 63.0904L66.2365 63.6732C66.4785 63.7325 66.7304 63.8065 66.9921 63.9053C67.244 63.9992 67.4811 64.1177 67.6885 64.2659C67.8959 64.4091 68.0639 64.5869 68.1923 64.7993C68.3207 65.0067 68.3849 65.2537 68.3849 65.5401C68.3849 65.9105 68.296 66.2316 68.1133 66.4983C67.9305 66.765 67.6984 66.9823 67.4218 67.1502C67.1452 67.3181 66.8439 67.4466 66.5229 67.5256C66.2019 67.6046 65.9006 67.6441 65.629 67.6441C65.1449 67.6441 64.6906 67.5947 64.2658 67.5058C63.846 67.412 63.4805 67.2589 63.1743 67.0465C62.873 66.8341 62.631 66.5477 62.4581 66.1921C62.2853 65.8364 62.2013 65.3821 62.2112 64.8487V64.7795H61.0604V64.8437C61.0258 65.5105 61.1197 66.0883 61.3271 66.5625C61.5345 67.0416 61.8358 67.4367 62.2211 67.738C62.6063 68.0442 63.0755 68.2714 63.6237 68.4146C64.167 68.5628 64.7597 68.6319 65.3919 68.6319C66.0241 68.6319 66.5723 68.5726 67.0267 68.459C67.4811 68.3455 67.8663 68.1874 68.1725 68.0047C68.4837 67.817 68.7306 67.6046 68.9084 67.3675C69.0862 67.1354 69.2245 66.9033 69.3184 66.6711C69.4171 66.4439 69.4764 66.2217 69.5011 66.0192C69.5258 65.8118 69.5406 65.6537 69.5406 65.5302C69.5406 65.0857 69.4665 64.6955 69.3184 64.3795" fill="white"/>
<path d="M34.7752 23.0995C34.1282 27.2829 30.5178 30.5031 26.1567 30.5031C26.1864 32.8787 27.1742 35.0173 28.7546 36.5632L34.7752 42.5838L40.7958 36.5632C42.3763 35.0222 43.3641 32.8787 43.3937 30.5031C39.0326 30.5031 35.4173 27.2829 34.7752 23.0995Z" fill="white"/>
<path d="M49.849 16.0665C48.2933 14.3131 46.0312 13.2019 43.5123 13.1673C43.4975 17.5185 40.2872 21.119 36.1088 21.766C40.2971 22.413 43.5173 26.0284 43.5173 30.3895V30.4043C46.0362 30.3697 48.2933 29.2634 49.849 27.5101L55.5733 21.7858L49.854 16.0665H49.849Z" fill="white"/>
<path d="M34.7752 20.4276C35.0568 18.6051 35.8914 16.916 37.225 15.5874C38.8746 13.9378 41.0675 13.029 43.3987 13.029C43.3641 10.4311 42.1886 8.11472 40.3464 6.55401L34.7802 0.987793L29.2189 6.54907C27.3717 8.10979 26.1963 10.4311 26.1617 13.029C30.5228 13.029 34.1332 16.2492 34.7802 20.4276" fill="white"/>
<path d="M33.4368 21.766C31.6143 21.4845 29.9252 20.6498 28.5966 19.3163C26.952 17.6716 26.0481 15.4886 26.0382 13.1673C23.5194 13.1969 21.2573 14.3082 19.7015 16.0615L13.9773 21.7858L19.6966 27.5051C21.2524 29.2584 23.5144 30.3697 26.0333 30.4043V30.3895C26.0333 26.0284 29.2486 22.413 33.4319 21.766" fill="white"/>
</svg>
